<svg xmlns="http://www.w3.org/2000/svg" version="1.1" xmlns:xlink="http://www.w3.org/1999/xlink" xmlns:svgjs="http://svgjs.dev/svgjs" width="1000" height="623" viewBox="0 0 1000 623"><g transform="matrix(1,0,0,1,-0.6060606060606233,0.2522267206477409)"><svg viewBox="0 0 396 247" data-background-color="#ffffff" preserveAspectRatio="xMidYMid meet" height="623" width="1000" xmlns="http://www.w3.org/2000/svg" xmlns:xlink="http://www.w3.org/1999/xlink"><g id="tight-bounds" transform="matrix(1,0,0,1,0.2400000000000091,-0.09999999999999432)"><svg viewBox="0 0 395.52 247.2" height="247.2" width="395.52"><g><svg></svg></g><g><svg viewBox="0 0 395.52 247.2" height="247.2" width="395.52"><g transform="matrix(1,0,0,1,121.92638316295849,47.215199999999996)"><svg viewBox="0 0 151.667233674083 152.7696" height="152.7696" width="151.667233674083"><g><svg viewBox="0 0 151.667233674083 152.7696" height="152.7696" width="151.667233674083"><g><svg viewBox="0 0 151.667233674083 152.7696" height="152.7696" width="151.667233674083"><g><svg viewBox="0 0 151.667233674083 152.7696" height="152.7696" width="151.667233674083"><g id="textblocktransform"><svg viewBox="0 0 151.667233674083 152.7696" height="152.7696" width="151.667233674083" id="textblock"><g><svg viewBox="0 0 151.667233674083 152.7696" height="152.7696" width="151.667233674083"><g transform="matrix(1,0,0,1,0,0)"><svg width="151.667233674083" viewBox="-3.640000104904175 -33.27000045776367 41.72999954223633 42.040000915527344" height="152.7696" data-palette-color="#7a26c1"><path d="M8.19-33.27L8.19-0.33Q8.19 4.02 5.99 6.4 3.79 8.77-0.28 8.77L-0.28 8.77Q-2.4 8.77-3.64 8.14L-3.64 8.14-3.64 4.85Q-2.02 5.31-0.28 5.31L-0.28 5.31Q1.97 5.31 3.15 3.94 4.32 2.58 4.32 0L4.32 0 4.32-33.27 8.19-33.27ZM17.01-33.27L25.63-33.27Q38.09-33.27 38.09-23.56L38.09-23.56Q38.09-18.53 34.64-15.8 31.19-13.07 24.8-13.07L24.8-13.07 20.88-13.07 20.88 0 17.01 0 17.01-33.27ZM25.2-29.9L20.88-29.9 20.88-16.41 24.37-16.41Q29.47-16.41 31.8-18.05L31.8-18.05Q34.1-19.72 34.1-23.22 34.1-26.72 31.92-28.31 29.75-29.9 25.2-29.9L25.2-29.9Z" opacity="1" transform="matrix(1,0,0,1,0,0)" fill="#7a26c1" class="undefined-text-0" data-fill-palette-color="primary" id="text-0"></path></svg></g></svg></g></svg></g></svg></g></svg></g></svg></g></svg></g><path d="M304.228 41.215L304.228 0 57.028 0 57.028 247.2 304.228 247.2 304.228 205.985 290.451 205.985 290.451 233.423 70.805 233.423 70.805 13.777 290.451 13.777 290.451 41.215Z" fill="#7a26c1" stroke="transparent" data-fill-palette-color="primary"></path></svg></g><defs></defs></svg><rect width="395.52" height="247.2" fill="none" stroke="none" visibility="hidden"></rect></g></svg></g></svg>